<svg width="16" height="16" viewBox="0 0 16 16" fill="none" xmlns="http://www.w3.org/2000/svg">
<path d="M6.00002 10.78L3.68668 8.46666C3.56203 8.34201 3.39297 8.27198 3.21668 8.27198C3.0404 8.27198 2.87133 8.34201 2.74668 8.46666C2.62203 8.59131 2.552 8.76037 2.552 8.93666C2.552 9.02394 2.56919 9.11038 2.6026 9.19102C2.636 9.27166 2.68496 9.34494 2.74668 9.40666L5.53335 12.1933C5.79335 12.4533 6.21335 12.4533 6.47335 12.1933L13.5267 5.13999C13.6513 5.01534 13.7214 4.84627 13.7214 4.66999C13.7214 4.49371 13.6513 4.32464 13.5267 4.19999C13.402 4.07534 13.233 4.00531 13.0567 4.00531C12.8804 4.00531 12.7113 4.07534 12.5867 4.19999L6.00002 10.78Z" fill="#333333"/>
</svg>
