<svg width="16" height="16" viewBox="0 0 16 16" fill="none" xmlns="http://www.w3.org/2000/svg">
<path d="M12.1999 3.80666C12.1382 3.74486 12.065 3.69583 11.9843 3.66237C11.9037 3.62892 11.8172 3.6117 11.7299 3.6117C11.6426 3.6117 11.5561 3.62892 11.4755 3.66237C11.3948 3.69583 11.3216 3.74486 11.2599 3.80666L7.99991 7.06L4.73991 3.8C4.67818 3.73828 4.60491 3.68932 4.52427 3.65591C4.44362 3.62251 4.35719 3.60532 4.26991 3.60532C4.18262 3.60532 4.09619 3.62251 4.01554 3.65591C3.9349 3.68932 3.86163 3.73828 3.7999 3.8C3.73818 3.86172 3.68922 3.93499 3.65582 4.01563C3.62242 4.09628 3.60522 4.18271 3.60522 4.27C3.60522 4.35728 3.62242 4.44372 3.65582 4.52436C3.68922 4.605 3.73818 4.67828 3.7999 4.74L7.05991 8L3.7999 11.26C3.73818 11.3217 3.68922 11.395 3.65582 11.4756C3.62242 11.5563 3.60522 11.6427 3.60522 11.73C3.60522 11.8173 3.62242 11.9037 3.65582 11.9844C3.68922 12.065 3.73818 12.1383 3.7999 12.2C3.86163 12.2617 3.9349 12.3107 4.01554 12.3441C4.09619 12.3775 4.18262 12.3947 4.26991 12.3947C4.35719 12.3947 4.44362 12.3775 4.52427 12.3441C4.60491 12.3107 4.67818 12.2617 4.73991 12.2L7.99991 8.94L11.2599 12.2C11.3216 12.2617 11.3949 12.3107 11.4755 12.3441C11.5562 12.3775 11.6426 12.3947 11.7299 12.3947C11.8172 12.3947 11.9036 12.3775 11.9843 12.3441C12.0649 12.3107 12.1382 12.2617 12.1999 12.2C12.2616 12.1383 12.3106 12.065 12.344 11.9844C12.3774 11.9037 12.3946 11.8173 12.3946 11.73C12.3946 11.6427 12.3774 11.5563 12.344 11.4756C12.3106 11.395 12.2616 11.3217 12.1999 11.26L8.9399 8L12.1999 4.74C12.4532 4.48666 12.4532 4.06 12.1999 3.80666Z" fill="#333333"/>
</svg>
