<svg width="33" height="32" viewBox="0 0 33 32" fill="none" xmlns="http://www.w3.org/2000/svg">
<path d="M30.0833 16.0001V26.6667C30.0833 27.374 29.8023 28.0523 29.3022 28.5524C28.8021 29.0525 28.1238 29.3334 27.4166 29.3334H6.08325C5.37601 29.3334 4.69773 29.0525 4.19763 28.5524C3.69754 28.0523 3.41659 27.374 3.41659 26.6667V16.0001C3.06296 16.0001 2.72382 15.8596 2.47378 15.6096C2.22373 15.3595 2.08325 15.0204 2.08325 14.6667V10.6667C2.08325 9.9595 2.3642 9.28123 2.8643 8.78113C3.3644 8.28103 4.04267 8.00008 4.74992 8.00008H8.97659C8.8259 7.57172 8.74925 7.12084 8.74992 6.66675C8.74992 5.60588 9.17135 4.58847 9.92149 3.83832C10.6716 3.08818 11.6891 2.66675 12.7499 2.66675C14.0833 2.66675 15.2566 3.33341 15.9899 4.32008V4.30675L16.7499 5.33341L17.5099 4.30675V4.32008C18.2433 3.33341 19.4166 2.66675 20.7499 2.66675C21.8108 2.66675 22.8282 3.08818 23.5783 3.83832C24.3285 4.58847 24.7499 5.60588 24.7499 6.66675C24.7506 7.12084 24.6739 7.57172 24.5233 8.00008H28.7499C29.4572 8.00008 30.1354 8.28103 30.6355 8.78113C31.1356 9.28123 31.4166 9.9595 31.4166 10.6667V14.6667C31.4166 15.0204 31.2761 15.3595 31.0261 15.6096C30.776 15.8596 30.4369 16.0001 30.0833 16.0001ZM6.08325 26.6667H15.4166V16.0001H6.08325V26.6667ZM27.4166 26.6667V16.0001H18.0833V26.6667H27.4166ZM12.7499 5.33341C12.3963 5.33341 12.0572 5.47389 11.8071 5.72394C11.5571 5.97399 11.4166 6.31313 11.4166 6.66675C11.4166 7.02037 11.5571 7.35951 11.8071 7.60956C12.0572 7.85961 12.3963 8.00008 12.7499 8.00008C13.1035 8.00008 13.4427 7.85961 13.6927 7.60956C13.9428 7.35951 14.0833 7.02037 14.0833 6.66675C14.0833 6.31313 13.9428 5.97399 13.6927 5.72394C13.4427 5.47389 13.1035 5.33341 12.7499 5.33341ZM20.7499 5.33341C20.3963 5.33341 20.0572 5.47389 19.8071 5.72394C19.5571 5.97399 19.4166 6.31313 19.4166 6.66675C19.4166 7.02037 19.5571 7.35951 19.8071 7.60956C20.0572 7.85961 20.3963 8.00008 20.7499 8.00008C21.1035 8.00008 21.4427 7.85961 21.6927 7.60956C21.9428 7.35951 22.0833 7.02037 22.0833 6.66675C22.0833 6.31313 21.9428 5.97399 21.6927 5.72394C21.4427 5.47389 21.1035 5.33341 20.7499 5.33341ZM4.74992 10.6667V13.3334H15.4166V10.6667H4.74992ZM18.0833 10.6667V13.3334H28.7499V10.6667H18.0833Z" fill="#333333"/>
</svg>
