<svg width="33" height="32" viewBox="0 0 33 32" fill="none" xmlns="http://www.w3.org/2000/svg">
<path d="M16.2499 5.3335C17.6644 5.3335 19.021 5.8954 20.0212 6.89559C21.0213 7.89579 21.5833 9.25234 21.5833 10.6668C21.5833 12.0813 21.0213 13.4379 20.0212 14.4381C19.021 15.4383 17.6644 16.0002 16.2499 16.0002C14.8354 16.0002 13.4789 15.4383 12.4787 14.4381C11.4785 13.4379 10.9166 12.0813 10.9166 10.6668C10.9166 9.25234 11.4785 7.89579 12.4787 6.89559C13.4789 5.8954 14.8354 5.3335 16.2499 5.3335ZM16.2499 18.6668C22.1433 18.6668 26.9166 21.0535 26.9166 24.0002V26.6668H5.58325V24.0002C5.58325 21.0535 10.3566 18.6668 16.2499 18.6668Z" fill="#D25151"/>
</svg>
