<svg width="33" height="32" viewBox="0 0 33 32" fill="none" xmlns="http://www.w3.org/2000/svg">
<path d="M16.2499 5.33325C17.6644 5.33325 19.021 5.89515 20.0212 6.89535C21.0213 7.89554 21.5833 9.2521 21.5833 10.6666C21.5833 12.0811 21.0213 13.4376 20.0212 14.4378C19.021 15.438 17.6644 15.9999 16.2499 15.9999C14.8354 15.9999 13.4789 15.438 12.4787 14.4378C11.4785 13.4376 10.9166 12.0811 10.9166 10.6666C10.9166 9.2521 11.4785 7.89554 12.4787 6.89535C13.4789 5.89515 14.8354 5.33325 16.2499 5.33325ZM16.2499 18.6666C22.1433 18.6666 26.9166 21.0533 26.9166 23.9999V26.6666H5.58325V23.9999C5.58325 21.0533 10.3566 18.6666 16.2499 18.6666Z" fill="#333333"/>
</svg>
